<?xml version="1.0" encoding="utf-8"?>
<!-- Generator: Adobe Illustrator 25.4.1, SVG Export Plug-In . SVG Version: 6.00 Build 0)  -->
<svg version="1.1" id="Layer_1" xmlns="http://www.w3.org/2000/svg" xmlns:xlink="http://www.w3.org/1999/xlink" x="0px" y="0px"
	 viewBox="0 0 186 39.4" style="enable-background:new 0 0 186 39.4;" xml:space="preserve">
<style type="text/css">
	.st0{opacity:0.8;fill:#FFFFFF;enable-background:new    ;}
	.st1{fill:#FFFFFF;}
</style>
<path class="st0" d="M137,25.2h7.3c6.8,0,12.4-5.9,12.4-12.6v-0.1c0-6.8-5.6-12-12.4-12H137v6.7h7.3c3,0,4.8,2.4,4.8,5.5l0,0
	c0,3-1.8,5.8-4.8,5.8H137V25.2z"/>
<path class="st0" d="M116.6,19.5c-0.3-0.6-0.7-0.6-1.1-0.6h-5.6c-0.7,0-1,0.4-1,0.8v0.1l3.1,6.3H97.2v6.7h17.9l2.6,5.4
	c0.3,0.7,0.7,0.9,1.2,0.9h5.6c0,0,1.4,0,0.9-1.1L116.6,19.5z"/>
<g>
	<path class="st1" d="M113.2,0.8c-0.2-0.2-0.5-0.3-0.8-0.3h-5.6c0,0-1,0-1.2,0.6L88.6,38l0,0c-0.1,0.2,0,0.4,0.2,0.7
		C89,39,89.3,39,89.5,39H95c0.6,0,1-0.6,1.2-1.1l17-36.7C113.3,1,113.3,0.9,113.2,0.8z"/>
</g>
<path class="st0" d="M94.3,5.6C91,2.7,86.9,0,79.9,0C69.1,0,60.3,8.8,60.3,19.7c0,10.3,8.9,19.2,18.4,19.4c0,0,0.6,0.1,0.9-0.5
	l2.6-5.7c0,0,0.2-0.4-0.1-0.6c-0.2-0.1-0.7-0.1-0.7-0.1C74.5,32.1,68,26.7,68,19.7S73.6,6.9,80.4,6.9c5,0,8.2,2.6,10.4,4.8
	c0,0,0.3,0.3,0.6,0.3c0.3,0,0.4-0.3,0.4-0.3l2.5-5.4C94.6,5.9,94.3,5.6,94.3,5.6z"/>
<path class="st1" d="M44.5,16.2c-4.4-1.8-6.5-3.6-6.5-6.1c0-1.8,1.7-3.8,4.8-3.8c3,0,7.4,2.6,7.8,2.9c0.7,0.4,1.2,0.3,1.6-0.5
	L53.9,5c0.3-0.7,0.1-1.3-0.4-1.6c-1.1-0.8-4.8-3.3-10.4-3.3c-8.7,0-12.3,5.6-12.3,10.5c0,6.5,5.2,9.8,10.3,11.8c4.6,1.9,7,3.8,7,6.6
	c0,2.4-2.1,4.2-5,4.2c-3.6,0-8.3-3.4-8.6-3.6c-0.7-0.4-1.5-0.4-1.9,0.4L31,33.5c-0.4,1-0.2,1.1,0.3,1.6c1.1,1,5.2,4.3,12.1,4.3
	c7.7,0,12.6-5.2,12.6-10.9C56,21.5,49.8,18.3,44.5,16.2z"/>
<g>
	<path class="st1" d="M0.7,39c-0.3,0-0.3-0.1-0.3-0.4v-5.5c0-0.3,0-0.3,0.3-0.3h22.7c0.3,0,0.4,0,0.4,0.3v5.5c0,0.3-0.1,0.4-0.4,0.4
		H0.7z"/>
	<path class="st1" d="M0.7,7.2C0.4,7.2,0.4,7,0.4,6.7V1.2c0-0.3,0-0.7,0.3-0.7h22.7c0.3,0,0.4,0.4,0.4,0.7v5.5
		c0,0.3-0.1,0.5-0.4,0.5H0.7z"/>
	<path class="st0" d="M0.7,22.7c-0.3,0-0.3,0-0.3-0.3v-5.6c0-0.3,0-0.4,0.3-0.4h19.9c0.3,0,0.3,0.1,0.3,0.4v5.5
		c0,0.3,0.1,0.3-0.3,0.3H0.7V22.7z"/>
	<path class="st1" d="M6.7,1.3v37.2c0,0.3-0.2,0.5-0.5,0.5H0.4C0,39,0,38.8,0,38.5V1.3c0-0.6,0.1-0.8,0.6-0.8h5.6h0.6L6.7,1.3z"/>
</g>
<g>
	<path class="st1" d="M162.9,39c-0.3,0-0.3-0.1-0.3-0.4v-5.5c0-0.3,0-0.3,0.3-0.3h22.7c0.3,0,0.4,0,0.4,0.3v5.5
		c0,0.3-0.1,0.4-0.4,0.4H162.9z"/>
	<path class="st1" d="M162.9,7.2c-0.3,0-0.3-0.2-0.3-0.5V1.2c0-0.3,0-0.7,0.3-0.7h22.7c0.3,0,0.4,0.4,0.4,0.7v5.5
		c0,0.3-0.1,0.5-0.4,0.5H162.9z"/>
	<path class="st0" d="M162.9,22.7c-0.3,0-0.3,0-0.3-0.3v-5.6c0-0.3,0-0.4,0.3-0.4h19.9c0.3,0,0.3,0.1,0.3,0.4v5.5
		c0,0.3,0.1,0.3-0.3,0.3h-19.9V22.7z"/>
	<path class="st1" d="M168.8,1.3v37.2c0,0.3-0.2,0.5-0.5,0.5h-5.7c-0.4,0-0.5-0.2-0.5-0.5V1.3c0-0.6,0.1-0.8,0.6-0.8h5.6h0.6
		L168.8,1.3z"/>
</g>
<path class="st1" d="M137,0.5h-5.7c-0.3,0-0.6,0.3-0.6,0.6v37.3c0,0.3,0.3,0.6,0.6,0.6h5.9c0.3,0,0.6-0.3,0.6-0.6V1.3V0.5H137z"/>
</svg>
